<svg width="32" height="32" viewBox="0 0 32 32" fill="none" xmlns="http://www.w3.org/2000/svg">
<rect width="32" height="32" rx="10" fill="#363636"/>
<path d="M6.41 19.84L0.61 17.56V16.64L6.41 14.36V15.17L1.25 17.09V17.11L6.41 19.03V19.84ZM7.70883 20.4L11.2488 12.3H12.0588L8.51883 20.4H7.70883ZM24.3675 19.84V19.03L29.5375 17.11V17.09L24.3675 15.17V14.36L30.1675 16.64V17.56L24.3675 19.84Z" fill="#FC5800"/>
<path d="M14.0267 20.1C13.3267 20.1 12.7801 19.8633 12.3867 19.39C12.0001 18.91 11.8067 18.2467 11.8067 17.4C11.8067 16.5533 12.0001 15.8933 12.3867 15.42C12.7801 14.94 13.3267 14.7 14.0267 14.7C14.4001 14.7 14.7467 14.77 15.0667 14.91C15.3867 15.05 15.6334 15.2467 15.8067 15.5H15.8267V12.7H16.6067V20H15.8667L15.8567 19.3H15.8367C15.6567 19.5467 15.4034 19.7433 15.0767 19.89C14.7501 20.03 14.4001 20.1 14.0267 20.1ZM14.1867 19.43C14.5067 19.43 14.7867 19.3667 15.0267 19.24C15.2734 19.1067 15.4667 18.9267 15.6067 18.7C15.7534 18.4733 15.8267 18.2133 15.8267 17.92V16.88C15.8267 16.5867 15.7534 16.3267 15.6067 16.1C15.4667 15.8733 15.2734 15.6967 15.0267 15.57C14.7867 15.4367 14.5067 15.37 14.1867 15.37C13.6867 15.37 13.2934 15.5467 13.0067 15.9C12.7267 16.2467 12.5867 16.7467 12.5867 17.4C12.5867 18.0533 12.7267 18.5567 13.0067 18.91C13.2934 19.2567 13.6867 19.43 14.1867 19.43ZM20.9009 20.1C20.5209 20.1 20.1676 20.03 19.8409 19.89C19.5209 19.7433 19.2676 19.5467 19.0809 19.3H19.0609V20H18.3009V12.7H19.0909V15.5H19.1109C19.2909 15.2467 19.5376 15.05 19.8509 14.91C20.1709 14.77 20.5209 14.7 20.9009 14.7C21.5943 14.7 22.1343 14.94 22.5209 15.42C22.9076 15.8933 23.1009 16.5533 23.1009 17.4C23.1009 18.2467 22.9076 18.91 22.5209 19.39C22.1343 19.8633 21.5943 20.1 20.9009 20.1ZM20.7309 19.43C21.2443 19.43 21.6376 19.2567 21.9109 18.91C22.1909 18.5567 22.3309 18.0533 22.3309 17.4C22.3309 16.7467 22.1909 16.2467 21.9109 15.9C21.6376 15.5467 21.2443 15.37 20.7309 15.37C20.4176 15.37 20.1376 15.4367 19.8909 15.57C19.6443 15.6967 19.4476 15.8733 19.3009 16.1C19.1609 16.32 19.0909 16.58 19.0909 16.88V17.92C19.0909 18.2133 19.1609 18.4733 19.3009 18.7C19.4476 18.9267 19.6443 19.1067 19.8909 19.24C20.1376 19.3667 20.4176 19.43 20.7309 19.43Z" fill="white"/>
</svg>
