<svg width="260" height="150" viewBox="0 0 260 150" fill="none" xmlns="http://www.w3.org/2000/svg">
<path d="M61.536 109.464L5.856 87.576V78.744L61.536 56.856V64.632L12 83.064V83.256L61.536 101.688V109.464ZM194.553 109.464V101.688L244.185 83.256V83.064L194.553 64.632V56.856L250.233 78.744V87.576L194.553 109.464Z" fill="#FC5800"/>
<path d="M95.2815 111.96C88.5615 111.96 83.3135 109.688 79.5375 105.144C75.8255 100.536 73.9695 94.168 73.9695 86.04C73.9695 77.912 75.8255 71.576 79.5375 67.032C83.3135 62.424 88.5615 60.12 95.2815 60.12C98.8655 60.12 102.194 60.792 105.266 62.136C108.338 63.48 110.706 65.368 112.37 67.8H112.562V40.92H120.05V111H112.946L112.85 104.28H112.658C110.93 106.648 108.498 108.536 105.362 109.944C102.226 111.288 98.8655 111.96 95.2815 111.96ZM96.8175 105.528C99.8895 105.528 102.578 104.92 104.882 103.704C107.25 102.424 109.106 100.696 110.45 98.52C111.858 96.344 112.562 93.848 112.562 91.032V81.048C112.562 78.232 111.858 75.736 110.45 73.56C109.106 71.384 107.25 69.688 104.882 68.472C102.578 67.192 99.8895 66.552 96.8175 66.552C92.0175 66.552 88.2415 68.248 85.4895 71.64C82.8015 74.968 81.4575 79.768 81.4575 86.04C81.4575 92.312 82.8015 97.144 85.4895 100.536C88.2415 103.864 92.0175 105.528 96.8175 105.528ZM161.274 111.96C157.626 111.96 154.234 111.288 151.098 109.944C148.026 108.536 145.594 106.648 143.802 104.28H143.61V111H136.314V40.92H143.898V67.8H144.09C145.818 65.368 148.186 63.48 151.194 62.136C154.266 60.792 157.626 60.12 161.274 60.12C167.93 60.12 173.114 62.424 176.826 67.032C180.538 71.576 182.394 77.912 182.394 86.04C182.394 94.168 180.538 100.536 176.826 105.144C173.114 109.688 167.93 111.96 161.274 111.96ZM159.642 105.528C164.57 105.528 168.346 103.864 170.97 100.536C173.658 97.144 175.002 92.312 175.002 86.04C175.002 79.768 173.658 74.968 170.97 71.64C168.346 68.248 164.57 66.552 159.642 66.552C156.634 66.552 153.946 67.192 151.578 68.472C149.21 69.688 147.322 71.384 145.914 73.56C144.57 75.672 143.898 78.168 143.898 81.048V91.032C143.898 93.848 144.57 96.344 145.914 98.52C147.322 100.696 149.21 102.424 151.578 103.704C153.946 104.92 156.634 105.528 159.642 105.528Z" fill="#363636"/>
</svg>
